<svg width="24" height="24" viewBox="0 0 24 24" fill="none" xmlns="http://www.w3.org/2000/svg">
    <g clip-path="url(#clip0_2355_2344)">
        <g filter="url(#filter0_d_2355_2344)">
            <path
                d="M12 21C12.1989 21 12.3897 21.079 12.5303 21.2197C12.671 21.3603 12.75 21.5511 12.75 21.75C12.75 21.9489 12.671 22.1397 12.5303 22.2803C12.3897 22.421 12.1989 22.5 12 22.5C11.8011 22.5 11.6103 22.421 11.4697 22.2803C11.329 22.1397 11.25 21.9489 11.25 21.75C11.25 21.5511 11.329 21.3603 11.4697 21.2197C11.6103 21.079 11.8011 21 12 21ZM15.2475 21.225C15.2783 21.3217 15.2891 21.4236 15.2794 21.5246C15.2697 21.6256 15.2395 21.7235 15.1908 21.8126C15.1421 21.9016 15.0759 21.9798 14.9961 22.0424C14.9163 22.1051 14.8246 22.1509 14.7266 22.1771C14.6286 22.2033 14.5262 22.2094 14.4258 22.1949C14.3254 22.1804 14.229 22.1457 14.1423 22.0929C14.0557 22.04 13.9807 21.9702 13.9219 21.8875C13.863 21.8049 13.8216 21.7111 13.8 21.612C13.7485 21.4199 13.7754 21.2151 13.8748 21.0428C13.9743 20.8705 14.1381 20.7448 14.3302 20.6932C14.5224 20.6417 14.7271 20.6687 14.8994 20.7681C15.0717 20.8675 15.1975 21.0314 15.249 21.2235L15.2475 21.225ZM9.6705 20.694C9.76964 20.7156 9.86338 20.757 9.94603 20.8159C10.0287 20.8747 10.0985 20.9497 10.1514 21.0363C10.2042 21.123 10.2389 21.2194 10.2534 21.3198C10.2679 21.4202 10.2618 21.5226 10.2356 21.6206C10.2094 21.7186 10.1636 21.8103 10.1009 21.8901C10.0383 21.9699 9.96006 22.0361 9.87105 22.0848C9.78204 22.1335 9.68408 22.1637 9.58309 22.1734C9.4821 22.1831 9.38018 22.1723 9.2835 22.1415C9.09978 22.083 8.94565 21.956 8.85311 21.7868C8.76057 21.6177 8.73672 21.4194 8.78652 21.2331C8.83632 21.0469 8.95594 20.8869 9.12054 20.7866C9.28515 20.6862 9.4821 20.653 9.6705 20.694ZM7.5 19.794C7.58598 19.8429 7.66145 19.9083 7.72205 19.9865C7.78265 20.0646 7.82719 20.154 7.85311 20.2495C7.87902 20.3449 7.8858 20.4446 7.87305 20.5427C7.8603 20.6407 7.82828 20.7353 7.77882 20.821C7.72937 20.9067 7.66346 20.9817 7.58488 21.0418C7.50631 21.1018 7.41663 21.1458 7.32101 21.1711C7.22538 21.1964 7.1257 21.2025 7.02771 21.1891C6.92971 21.1757 6.83533 21.143 6.75 21.093C6.57914 20.9928 6.45484 20.8292 6.40422 20.6377C6.3536 20.4462 6.38077 20.2425 6.47979 20.071C6.57882 19.8995 6.74167 19.7741 6.9328 19.7222C7.12393 19.6703 7.32783 19.6961 7.5 19.794ZM16.5 19.794C16.5853 19.744 16.6797 19.7113 16.7777 19.6979C16.8757 19.6845 16.9754 19.6906 17.071 19.7159C17.1666 19.7412 17.2563 19.7852 17.3349 19.8452C17.4135 19.9053 17.4794 19.9803 17.5288 20.066C17.5783 20.1517 17.6103 20.2463 17.6231 20.3443C17.6358 20.4424 17.629 20.5421 17.6031 20.6375C17.5772 20.733 17.5327 20.8224 17.4721 20.9005C17.4114 20.9787 17.336 21.0441 17.25 21.093C17.0786 21.1827 16.8792 21.2026 16.6934 21.1487C16.5076 21.0948 16.3498 20.9712 16.253 20.8038C16.1562 20.6363 16.1279 20.4379 16.1739 20.25C16.2199 20.0621 16.3368 19.8993 16.5 19.7955V19.794ZM4.575 18.363C4.64419 18.2914 4.72694 18.2342 4.81845 18.1949C4.90995 18.1556 5.00836 18.1349 5.10795 18.1341C5.20753 18.1332 5.30629 18.1522 5.39847 18.1899C5.49064 18.2276 5.57438 18.2833 5.6448 18.3537C5.71522 18.4241 5.77091 18.5079 5.80862 18.6C5.84633 18.6922 5.8653 18.791 5.86444 18.8906C5.86357 18.9901 5.84288 19.0886 5.80358 19.1801C5.76427 19.2716 5.70713 19.3543 5.6355 19.4235C5.49405 19.5601 5.3046 19.6357 5.10795 19.634C4.9113 19.6323 4.72319 19.5534 4.58414 19.4144C4.44508 19.2753 4.3662 19.0872 4.36449 18.8906C4.36279 18.6939 4.43838 18.5045 4.575 18.363ZM19.425 18.363C19.4947 18.4327 19.55 18.5155 19.5878 18.6066C19.6255 18.6977 19.6449 18.7954 19.6449 18.894C19.6449 18.9926 19.6255 19.0903 19.5878 19.1814C19.55 19.2725 19.4947 19.3553 19.425 19.425C19.3553 19.4947 19.2725 19.55 19.1814 19.5878C19.0903 19.6255 18.9926 19.6449 18.894 19.6449C18.7954 19.6449 18.6977 19.6255 18.6066 19.5878C18.5155 19.55 18.4327 19.4947 18.363 19.425C18.2224 19.2842 18.1434 19.0932 18.1436 18.8942C18.1437 18.6952 18.2229 18.5044 18.3638 18.3638C18.5046 18.2231 18.6955 18.1442 18.8945 18.1443C19.0936 18.1445 19.2844 18.2237 19.425 18.3645V18.363ZM12 4.5C13.9891 4.5 15.8968 5.29018 17.3033 6.6967C18.7098 8.10322 19.5 10.0109 19.5 12C19.5 13.9891 18.7098 15.8968 17.3033 17.3033C15.8968 18.7098 13.9891 19.5 12 19.5C10.0109 19.5 8.10322 18.7098 6.6967 17.3033C5.29018 15.8968 4.5 13.9891 4.5 12C4.5 10.0109 5.29018 8.10322 6.6967 6.6967C8.10322 5.29018 10.0109 4.5 12 4.5ZM12 6C10.4087 6 8.88258 6.63214 7.75736 7.75736C6.63214 8.88258 6 10.4087 6 12C6 13.5913 6.63214 15.1174 7.75736 16.2426C8.88258 17.3679 10.4087 18 12 18C13.5913 18 15.1174 17.3679 16.2426 16.2426C17.3679 15.1174 18 13.5913 18 12C18 10.4087 17.3679 8.88258 16.2426 7.75736C15.1174 6.63214 13.5913 6 12 6ZM19.794 16.5C19.8429 16.414 19.9083 16.3386 19.9865 16.2779C20.0646 16.2173 20.154 16.1728 20.2495 16.1469C20.3449 16.121 20.4446 16.1142 20.5427 16.1269C20.6407 16.1397 20.7353 16.1717 20.821 16.2212C20.9067 16.2706 20.9817 16.3365 21.0418 16.4151C21.1018 16.4937 21.1458 16.5834 21.1711 16.679C21.1964 16.7746 21.2025 16.8743 21.1891 16.9723C21.1757 17.0703 21.143 17.1647 21.093 17.25C20.9928 17.4209 20.8292 17.5452 20.6377 17.5958C20.4462 17.6464 20.2425 17.6192 20.071 17.5202C19.8995 17.4212 19.7741 17.2583 19.7222 17.0672C19.6703 16.8761 19.6961 16.6722 19.794 16.5ZM4.206 16.5C4.25602 16.5853 4.28867 16.6797 4.30207 16.7777C4.31547 16.8757 4.30936 16.9754 4.28407 17.071C4.25879 17.1666 4.21485 17.2563 4.15476 17.3349C4.09468 17.4135 4.01965 17.4794 3.934 17.5288C3.84834 17.5783 3.75374 17.6103 3.65566 17.6231C3.55757 17.6358 3.45794 17.629 3.36248 17.6031C3.26703 17.5772 3.17764 17.5327 3.09947 17.4721C3.0213 17.4114 2.95589 17.336 2.907 17.25C2.80911 17.0778 2.7833 16.8739 2.83519 16.6828C2.88708 16.4917 3.01246 16.3288 3.18398 16.2298C3.35549 16.1308 3.55922 16.1036 3.75069 16.1542C3.94216 16.2048 4.10584 16.3291 4.206 16.5ZM12 8.25C12.9946 8.25 13.9484 8.64509 14.6517 9.34835C15.3549 10.0516 15.75 11.0054 15.75 12C15.75 12.9946 15.3549 13.9484 14.6517 14.6517C13.9484 15.3549 12.9946 15.75 12 15.75C11.0054 15.75 10.0516 15.3549 9.34835 14.6517C8.64509 13.9484 8.25 12.9946 8.25 12C8.25 11.0054 8.64509 10.0516 9.34835 9.34835C10.0516 8.64509 11.0054 8.25 12 8.25ZM2.388 13.8C2.48447 13.7698 2.58606 13.7594 2.68665 13.7695C2.78723 13.7795 2.88475 13.8098 2.97334 13.8585C3.06193 13.9072 3.13976 13.9733 3.20216 14.0528C3.26455 14.1324 3.31022 14.2237 3.33643 14.3213C3.36263 14.419 3.36883 14.5209 3.35464 14.621C3.34046 14.7211 3.30619 14.8173 3.25389 14.9038C3.20159 14.9903 3.13234 15.0653 3.0503 15.1244C2.96826 15.1835 2.87513 15.2253 2.7765 15.2475C2.58435 15.2992 2.37953 15.2725 2.20709 15.1732C2.03465 15.0739 1.90872 14.9101 1.857 14.718C1.80528 14.5259 1.83201 14.321 1.93132 14.1486C2.03062 13.9761 2.19435 13.8502 2.3865 13.7985L2.388 13.8ZM21.612 13.8C21.71 13.8228 21.8025 13.8652 21.8838 13.9245C21.9651 13.9838 22.0337 14.0589 22.0854 14.1452C22.137 14.2316 22.1708 14.3275 22.1847 14.4272C22.1985 14.5269 22.1922 14.6284 22.166 14.7256C22.1398 14.8227 22.0943 14.9137 22.0323 14.9929C21.9702 15.0722 21.8928 15.1381 21.8047 15.1868C21.7166 15.2355 21.6197 15.266 21.5195 15.2764C21.4194 15.2868 21.3182 15.277 21.222 15.2475C21.0299 15.1958 20.8661 15.0699 20.7668 14.8974C20.6675 14.725 20.6408 14.5201 20.6925 14.328C20.7442 14.1359 20.8701 13.9721 21.0426 13.8728C21.215 13.7735 21.4199 13.7468 21.612 13.7985V13.8ZM12 9.75C11.4033 9.75 10.831 9.98705 10.409 10.409C9.98705 10.831 9.75 11.4033 9.75 12C9.75 12.5967 9.98705 13.169 10.409 13.591C10.831 14.0129 11.4033 14.25 12 14.25C12.5967 14.25 13.169 14.0129 13.591 13.591C14.0129 13.169 14.25 12.5967 14.25 12C14.25 11.4033 14.0129 10.831 13.591 10.409C13.169 9.98705 12.5967 9.75 12 9.75ZM21.75 11.25C21.9489 11.25 22.1397 11.329 22.2803 11.4697C22.421 11.6103 22.5 11.8011 22.5 12C22.5 12.1989 22.421 12.3897 22.2803 12.5303C22.1397 12.671 21.9489 12.75 21.75 12.75C21.5511 12.75 21.3603 12.671 21.2197 12.5303C21.079 12.3897 21 12.1989 21 12C21 11.8011 21.079 11.6103 21.2197 11.4697C21.3603 11.329 21.5511 11.25 21.75 11.25ZM2.25 11.25C2.44891 11.25 2.63968 11.329 2.78033 11.4697C2.92098 11.6103 3 11.8011 3 12C3 12.1989 2.92098 12.3897 2.78033 12.5303C2.63968 12.671 2.44891 12.75 2.25 12.75C2.05109 12.75 1.86032 12.671 1.71967 12.5303C1.57902 12.3897 1.5 12.1989 1.5 12C1.5 11.8011 1.57902 11.6103 1.71967 11.4697C1.86032 11.329 2.05109 11.25 2.25 11.25ZM21.2235 8.7525C21.3186 8.72699 21.4179 8.72047 21.5155 8.73331C21.6132 8.74616 21.7074 8.77811 21.7927 8.82735C21.878 8.87658 21.9528 8.94214 22.0128 9.02028C22.0727 9.09842 22.1167 9.18761 22.1423 9.28275C22.1678 9.37789 22.1743 9.47713 22.1614 9.57479C22.1486 9.67245 22.1166 9.76663 22.0674 9.85194C22.0182 9.93726 21.9526 10.012 21.8745 10.072C21.7963 10.132 21.7071 10.176 21.612 10.2015C21.4199 10.2532 21.215 10.2265 21.0426 10.1272C20.8701 10.0279 20.7442 9.86415 20.6925 9.672C20.6408 9.47985 20.6675 9.27503 20.7668 9.10259C20.8661 8.93015 21.0299 8.80422 21.222 8.7525H21.2235ZM2.7765 8.7525C2.87164 8.77811 2.96081 8.8222 3.03891 8.88227C3.11701 8.94234 3.18252 9.0172 3.23168 9.10259C3.28085 9.18797 3.31272 9.2822 3.32547 9.3799C3.33823 9.4776 3.33161 9.57686 3.306 9.672C3.28039 9.76714 3.2363 9.85631 3.17623 9.93441C3.11616 10.0125 3.0413 10.078 2.95591 10.1272C2.87053 10.1764 2.7763 10.2082 2.6786 10.221C2.5809 10.2337 2.48164 10.2271 2.3865 10.2015C2.19435 10.1498 2.03062 10.0239 1.93132 9.85141C1.83201 9.67897 1.80528 9.47415 1.857 9.282C1.90872 9.08985 2.03465 8.92612 2.20709 8.82682C2.37953 8.72751 2.58435 8.70078 2.7765 8.7525ZM2.907 6.75C2.95589 6.66402 3.0213 6.58855 3.09947 6.52795C3.17764 6.46735 3.26703 6.42281 3.36248 6.39689C3.45794 6.37098 3.55757 6.3642 3.65566 6.37695C3.75374 6.3897 3.84834 6.42172 3.934 6.47118C4.01965 6.52063 4.09468 6.58654 4.15476 6.66512C4.21485 6.74369 4.25879 6.83337 4.28407 6.92899C4.30936 7.02462 4.31547 7.1243 4.30207 7.22229C4.28867 7.32029 4.25602 7.41467 4.206 7.5C4.10584 7.67086 3.94216 7.79516 3.75069 7.84578C3.55922 7.8964 3.35549 7.86923 3.18398 7.77021C3.01246 7.67118 2.88708 7.50833 2.83519 7.3172C2.7833 7.12607 2.80911 6.92217 2.907 6.75ZM21.093 6.75C21.143 6.83533 21.1757 6.92971 21.1891 7.02771C21.2025 7.1257 21.1964 7.22538 21.1711 7.32101C21.1458 7.41663 21.1018 7.50631 21.0418 7.58488C20.9817 7.66346 20.9067 7.72937 20.821 7.77882C20.7353 7.82828 20.6407 7.8603 20.5427 7.87305C20.4446 7.8858 20.3449 7.87902 20.2495 7.85311C20.154 7.82719 20.0646 7.78265 19.9865 7.72205C19.9083 7.66145 19.8429 7.58598 19.794 7.5C19.6961 7.32783 19.6703 7.12393 19.7222 6.9328C19.7741 6.74167 19.8995 6.57882 20.071 6.47979C20.2425 6.38077 20.4462 6.3536 20.6377 6.40422C20.8292 6.45484 20.9928 6.57914 21.093 6.75ZM5.6355 4.575C5.70523 4.64463 5.76057 4.72732 5.79834 4.81834C5.83612 4.90936 5.8556 5.00692 5.85567 5.10547C5.85574 5.20402 5.8364 5.30161 5.79875 5.39268C5.7611 5.48375 5.70588 5.56652 5.63625 5.63625C5.56662 5.70598 5.48393 5.76132 5.39291 5.79909C5.30189 5.83687 5.20433 5.85635 5.10578 5.85642C5.00723 5.85649 4.90964 5.83715 4.81857 5.7995C4.7275 5.76185 4.64473 5.70663 4.575 5.637C4.43838 5.49555 4.36279 5.3061 4.36449 5.10945C4.3662 4.9128 4.44508 4.72469 4.58414 4.58564C4.72319 4.44658 4.9113 4.3677 5.10795 4.36599C5.3046 4.36429 5.49405 4.43988 5.6355 4.5765V4.575ZM18.3645 4.575C18.4337 4.50337 18.5164 4.44623 18.6079 4.40692C18.6994 4.36762 18.7979 4.34693 18.8974 4.34606C18.997 4.3452 19.0958 4.36417 19.188 4.40188C19.2801 4.43959 19.3639 4.49528 19.4343 4.5657C19.5047 4.63612 19.5604 4.71986 19.5981 4.81203C19.6358 4.90421 19.6548 5.00297 19.6539 5.10255C19.6531 5.20214 19.6324 5.30055 19.5931 5.39205C19.5538 5.48356 19.4966 5.56631 19.425 5.6355C19.2835 5.77212 19.0941 5.84771 18.8974 5.84601C18.7008 5.8443 18.5127 5.76542 18.3736 5.62636C18.2346 5.48731 18.1557 5.2992 18.154 5.10255C18.1523 4.9059 18.2279 4.71645 18.3645 4.575ZM6.75 2.907C6.83533 2.85698 6.92971 2.82433 7.02771 2.81093C7.1257 2.79753 7.22538 2.80364 7.32101 2.82893C7.41663 2.85421 7.50631 2.89815 7.58488 2.95824C7.66346 3.01832 7.72937 3.09335 7.77882 3.179C7.82828 3.26466 7.8603 3.35926 7.87305 3.45734C7.8858 3.55543 7.87902 3.65506 7.85311 3.75052C7.82719 3.84597 7.78265 3.93536 7.72205 4.01353C7.66145 4.0917 7.58598 4.15711 7.5 4.206C7.32783 4.30389 7.12393 4.3297 6.9328 4.27781C6.74167 4.22592 6.57882 4.10054 6.47979 3.92902C6.38077 3.75751 6.3536 3.55378 6.40422 3.36231C6.45484 3.17084 6.57914 3.00716 6.75 2.907ZM17.25 2.907C17.336 2.95589 17.4114 3.0213 17.4721 3.09947C17.5327 3.17764 17.5772 3.26703 17.6031 3.36248C17.629 3.45794 17.6358 3.55757 17.6231 3.65566C17.6103 3.75374 17.5783 3.84834 17.5288 3.934C17.4794 4.01965 17.4135 4.09468 17.3349 4.15476C17.2563 4.21485 17.1666 4.25879 17.071 4.28407C16.9754 4.30936 16.8757 4.31547 16.7777 4.30207C16.6797 4.28867 16.5853 4.25602 16.5 4.206C16.3291 4.10584 16.2048 3.94216 16.1542 3.75069C16.1036 3.55922 16.1308 3.35549 16.2298 3.18398C16.3288 3.01246 16.4917 2.88708 16.6828 2.83519C16.8739 2.7833 17.0778 2.80911 17.25 2.907ZM10.2 2.388C10.2295 2.48423 10.2393 2.58542 10.2289 2.68554C10.2185 2.78565 10.188 2.88264 10.1393 2.97073C10.0906 3.05882 10.0247 3.1362 9.94541 3.19826C9.86617 3.26033 9.77524 3.30581 9.67805 3.332C9.58086 3.35818 9.4794 3.36454 9.3797 3.35068C9.28 3.33683 9.18411 3.30305 9.09775 3.25135C9.01138 3.19966 8.93631 3.13111 8.87699 3.04978C8.81768 2.96846 8.77534 2.87603 8.7525 2.778C8.70078 2.58585 8.72751 2.38103 8.82682 2.20859C8.92612 2.03615 9.08985 1.91022 9.282 1.8585C9.47415 1.80678 9.67897 1.83351 9.85141 1.93282C10.0239 2.03212 10.1498 2.19585 10.2015 2.388H10.2ZM14.718 1.8585C14.816 1.88134 14.9085 1.92368 14.9898 1.98299C15.0711 2.04231 15.1397 2.11738 15.1914 2.20375C15.243 2.29011 15.2768 2.386 15.2907 2.4857C15.3045 2.5854 15.2982 2.68686 15.272 2.78405C15.2458 2.88124 15.2003 2.97217 15.1383 3.05141C15.0762 3.13065 14.9988 3.19659 14.9107 3.24529C14.8226 3.294 14.7257 3.32447 14.6255 3.3349C14.5254 3.34533 14.4242 3.3355 14.328 3.306C14.1421 3.249 13.9856 3.12202 13.8915 2.95184C13.7974 2.78166 13.7731 2.58159 13.8236 2.39382C13.8742 2.20606 13.9958 2.04528 14.1626 1.94541C14.3295 1.84554 14.5286 1.81438 14.718 1.8585ZM12 1.5C12.1989 1.5 12.3897 1.57902 12.5303 1.71967C12.671 1.86032 12.75 2.05109 12.75 2.25C12.75 2.44891 12.671 2.63968 12.5303 2.78033C12.3897 2.92098 12.1989 3 12 3C11.8011 3 11.6103 2.92098 11.4697 2.78033C11.329 2.63968 11.25 2.44891 11.25 2.25C11.25 2.05109 11.329 1.86032 11.4697 1.71967C11.6103 1.57902 11.8011 1.5 12 1.5Z"
                fill="white" />
        </g>
    </g>
    <defs>
        <filter id="filter0_d_2355_2344" x="0.5" y="0.5" width="23" height="23"
            filterUnits="userSpaceOnUse" color-interpolation-filters="sRGB">
            <feFlood flood-opacity="0" result="BackgroundImageFix" />
            <feColorMatrix in="SourceAlpha" type="matrix"
                values="0 0 0 0 0 0 0 0 0 0 0 0 0 0 0 0 0 0 127 0" result="hardAlpha" />
            <feOffset />
            <feGaussianBlur stdDeviation="0.5" />
            <feComposite in2="hardAlpha" operator="out" />
            <feColorMatrix type="matrix" values="0 0 0 0 0 0 0 0 0 0 0 0 0 0 0 0 0 0 0.5 0" />
            <feBlend mode="normal" in2="BackgroundImageFix" result="effect1_dropShadow_2355_2344" />
            <feBlend mode="normal" in="SourceGraphic" in2="effect1_dropShadow_2355_2344"
                result="shape" />
        </filter>
        <clipPath id="clip0_2355_2344">
            <rect width="24" height="24" fill="white" />
        </clipPath>
    </defs>
</svg>
