<svg width="24" height="24" viewBox="0 0 24 24" fill="none" xmlns="http://www.w3.org/2000/svg">
    <g clip-path="url(#clip0_2355_2334)">
        <g filter="url(#filter0_d_2355_2334)">
            <path
                d="M12 21C12.1989 21 12.3896 21.0791 12.5303 21.2197C12.6709 21.3604 12.75 21.5511 12.75 21.75C12.75 21.9489 12.6709 22.1396 12.5303 22.2803C12.3896 22.4209 12.1989 22.5 12 22.5C11.8011 22.5 11.6104 22.4209 11.4697 22.2803C11.3291 22.1396 11.25 21.9489 11.25 21.75C11.25 21.5511 11.3291 21.3604 11.4697 21.2197C11.6104 21.0791 11.8011 21 12 21ZM14.3301 20.6934C14.5222 20.6418 14.7271 20.6691 14.8994 20.7686C15.0716 20.868 15.1975 21.0315 15.249 21.2236L15.2471 21.2246C15.2778 21.3212 15.289 21.4235 15.2793 21.5244C15.2696 21.6254 15.2391 21.7235 15.1904 21.8125C15.1418 21.9014 15.0758 21.9794 14.9961 22.042C14.9163 22.1046 14.8246 22.1505 14.7266 22.1768C14.6286 22.203 14.5262 22.2098 14.4258 22.1953C14.3254 22.1808 14.2292 22.1456 14.1426 22.0928C14.056 22.04 13.9807 21.9703 13.9219 21.8877C13.8631 21.8051 13.8214 21.7114 13.7998 21.6123C13.7483 21.4202 13.7756 21.2153 13.875 21.043C13.9744 20.8707 14.138 20.7449 14.3301 20.6934ZM9.6709 20.6943C9.76986 20.7159 9.86377 20.7567 9.94629 20.8154C10.0289 20.8742 10.0985 20.9496 10.1514 21.0361C10.2041 21.1226 10.2384 21.2191 10.2529 21.3193C10.2674 21.4196 10.2615 21.5222 10.2354 21.6201C10.2092 21.7181 10.1632 21.8099 10.1006 21.8896C10.0379 21.9694 9.9601 22.0363 9.87109 22.085C9.78209 22.1336 9.68399 22.1641 9.58301 22.1738C9.48206 22.1835 9.37984 22.1724 9.2832 22.1416C9.09973 22.0831 8.94604 21.956 8.85352 21.7871C8.76103 21.6181 8.73645 21.4196 8.78613 21.2334C8.83592 21.0472 8.95557 20.8865 9.12012 20.7861C9.28472 20.6857 9.4825 20.6534 9.6709 20.6943ZM6.93262 19.7227C7.12374 19.6708 7.32784 19.6961 7.5 19.7939C7.58589 19.8428 7.66111 19.9083 7.72168 19.9863C7.78221 20.0644 7.82759 20.1537 7.85352 20.249C7.87943 20.3445 7.8858 20.4449 7.87305 20.543C7.86027 20.6409 7.8287 20.7357 7.7793 20.8213C7.72984 20.9069 7.66353 20.9819 7.58496 21.042C7.50649 21.102 7.41677 21.1456 7.32129 21.1709C7.22566 21.1962 7.12534 21.2029 7.02734 21.1895C6.92945 21.176 6.83524 21.1427 6.75 21.0928C6.5792 20.9926 6.45491 20.8291 6.4043 20.6377C6.35371 20.4464 6.38064 20.2427 6.47949 20.0713C6.57847 19.8999 6.74161 19.7746 6.93262 19.7227ZM17.0713 19.7158C17.1334 19.7323 17.1914 19.7595 17.2471 19.791L17.5342 20.0781C17.5799 20.1607 17.6109 20.251 17.623 20.3447C17.6357 20.4427 17.6294 20.5424 17.6035 20.6377C17.5776 20.7331 17.5323 20.8222 17.4717 20.9004C17.4111 20.9785 17.3359 21.0439 17.25 21.0928C17.0786 21.1824 16.8791 21.2023 16.6934 21.1484C16.5076 21.0945 16.3497 20.9712 16.2529 20.8037C16.1562 20.6363 16.1278 20.4379 16.1738 20.25C16.2198 20.0622 16.3368 19.8997 16.5 19.7959V19.7939C16.5852 19.744 16.6795 19.7117 16.7773 19.6982C16.8753 19.6848 16.9757 19.6905 17.0713 19.7158ZM3.81152 3.80859C4.20203 3.4185 4.83518 3.41833 5.22559 3.80859L20.1963 18.7793C20.5867 19.1697 20.5864 19.8028 20.1963 20.1934C19.8058 20.5839 19.1728 20.5839 18.7822 20.1934L16.5488 17.96L15.4756 16.8877V16.8867L13.8486 15.2598V15.2607L12.7178 14.1289H12.7168L3.81152 5.22363C3.421 4.83311 3.421 4.19912 3.81152 3.80859ZM5.1084 18.1338C5.20777 18.133 5.30645 18.1518 5.39844 18.1895C5.49051 18.2271 5.57416 18.2832 5.64453 18.3535C5.71486 18.4238 5.77089 18.5076 5.80859 18.5996C5.8463 18.6918 5.86512 18.791 5.86426 18.8906C5.86338 18.9901 5.84291 19.0883 5.80371 19.1797C5.7644 19.2712 5.70738 19.3546 5.63574 19.4238C5.4944 19.5603 5.30487 19.6354 5.1084 19.6338C4.91175 19.6321 4.72304 19.5531 4.58398 19.4141C4.44509 19.275 4.36598 19.0871 4.36426 18.8906C4.36255 18.694 4.43861 18.5047 4.5752 18.3633C4.64433 18.2917 4.72694 18.2346 4.81836 18.1953C4.90986 18.156 5.00881 18.1347 5.1084 18.1338ZM6.68164 9.22461C6.2385 10.0738 6 11.0244 6 12C6 13.5913 6.63259 15.117 7.75781 16.2422C8.88303 17.3674 10.4087 18 12 18C12.9753 18 13.9254 17.7612 14.7744 17.3184L15.876 18.4199C14.7159 19.1203 13.3777 19.5 12 19.5C10.0109 19.5 8.10281 18.7102 6.69629 17.3037C5.28977 15.8972 4.5 13.9891 4.5 12C4.5 10.6222 4.87864 9.2832 5.5791 8.12305L6.68164 9.22461ZM3.75098 16.1543C3.94232 16.205 4.10594 16.3292 4.20605 16.5C4.256 16.5852 4.28833 16.6795 4.30176 16.7773C4.31516 16.8753 4.30946 16.9757 4.28418 17.0713C4.25889 17.1668 4.21433 17.2565 4.1543 17.335C4.09425 17.4134 4.01915 17.4799 3.93359 17.5293C3.84807 17.5786 3.75317 17.6103 3.65527 17.623C3.55731 17.6357 3.45764 17.6294 3.3623 17.6035C3.26687 17.5776 3.17776 17.5323 3.09961 17.4717C3.02151 17.4111 2.95609 17.3359 2.90723 17.25C2.80934 17.0778 2.78307 16.8737 2.83496 16.6826C2.88686 16.4916 3.01219 16.3285 3.18359 16.2295C3.35511 16.1305 3.5595 16.1037 3.75098 16.1543ZM20.543 16.127C20.6409 16.1397 20.7357 16.1713 20.8213 16.2207C20.9069 16.2702 20.9819 16.3365 21.042 16.415C21.102 16.4935 21.1456 16.5832 21.1709 16.6787C21.1962 16.7743 21.2029 16.8747 21.1895 16.9727C21.176 17.0705 21.1427 17.1648 21.0928 17.25C20.9926 17.4208 20.8291 17.5451 20.6377 17.5957C20.4464 17.6463 20.2427 17.6194 20.0713 17.5205C19.8999 17.4215 19.7746 17.2584 19.7227 17.0674C19.6708 16.8763 19.6961 16.6722 19.7939 16.5C19.8428 16.4141 19.9083 16.3389 19.9863 16.2783C20.0644 16.2178 20.1537 16.1724 20.249 16.1465C20.3445 16.1206 20.4449 16.1142 20.543 16.127ZM12 4.5C13.9891 4.5 15.8972 5.28977 17.3037 6.69629C18.7102 8.10281 19.5 10.0109 19.5 12C19.5 13.3767 19.1203 14.7136 18.4209 15.873L17.3193 14.7715C17.7613 13.9231 18 12.9742 18 12C18 10.4087 17.3674 8.88303 16.2422 7.75781C15.117 6.63259 13.5913 6 12 6C11.0256 6 10.076 6.23759 9.22754 6.67969L8.12598 5.57812C9.28554 4.87866 10.6232 4.5 12 4.5ZM9.77441 12.3184C9.84292 12.7973 10.0631 13.2447 10.4092 13.5908C10.755 13.9367 11.2021 14.1559 11.6807 14.2246L13.0537 15.5977C12.7143 15.6971 12.36 15.75 12 15.75C11.0054 15.75 10.0519 15.3546 9.34863 14.6514C8.64537 13.9481 8.25 12.9946 8.25 12C8.25 11.6398 8.30183 11.2849 8.40137 10.9453L9.77441 12.3184ZM21.6123 13.7988V13.7998C21.7102 13.8227 21.8025 13.8655 21.8838 13.9248C21.965 13.9841 22.0333 14.0592 22.085 14.1455C22.1366 14.2317 22.1707 14.3272 22.1846 14.4268C22.1984 14.5265 22.1922 14.6284 22.166 14.7256C22.1398 14.8228 22.0943 14.9139 22.0322 14.9932C21.9702 15.0723 21.8927 15.1379 21.8047 15.1865C21.7166 15.2352 21.6196 15.2659 21.5195 15.2764C21.4194 15.2868 21.3179 15.2766 21.2217 15.2471C21.0297 15.1953 20.8658 15.0698 20.7666 14.8975C20.6674 14.7251 20.6407 14.5202 20.6924 14.3281C20.7441 14.136 20.8705 13.9723 21.043 13.873C21.2154 13.7738 21.4202 13.7471 21.6123 13.7988ZM2.68652 13.7695C2.78711 13.7796 2.88504 13.8097 2.97363 13.8584C3.06212 13.9071 3.1398 13.9733 3.20215 14.0527C3.26454 14.1323 3.31071 14.2237 3.33691 14.3213C3.3631 14.4189 3.36867 14.521 3.35449 14.6211C3.34032 14.721 3.30607 14.8169 3.25391 14.9033C3.20171 14.9897 3.1326 15.065 3.05078 15.124C2.96874 15.1831 2.875 15.2249 2.77637 15.2471C2.58422 15.2988 2.37947 15.2721 2.20703 15.1729C2.03469 15.0735 1.90912 14.9099 1.85742 14.7178C1.80574 14.5257 1.83236 14.3208 1.93164 14.1484C2.03096 13.9761 2.19466 13.8505 2.38672 13.7988L2.3877 13.7998C2.48413 13.7696 2.58597 13.7595 2.68652 13.7695ZM12 8.25C12.9946 8.25 13.9481 8.64537 14.6514 9.34863C15.3546 10.0519 15.75 11.0054 15.75 12C15.75 12.359 15.6975 12.7123 15.5986 13.0508L14.2236 11.6758C14.1541 11.1991 13.9355 10.7539 13.5908 10.4092C13.2459 10.0642 12.8003 9.84471 12.3232 9.77539L10.9482 8.40039C11.2869 8.30142 11.6408 8.25 12 8.25ZM2.25 11.25C2.44891 11.25 2.63962 11.3291 2.78027 11.4697C2.92093 11.6104 3 11.8011 3 12C3 12.1989 2.92093 12.3896 2.78027 12.5303C2.63962 12.6709 2.44891 12.75 2.25 12.75C2.05109 12.75 1.86038 12.6709 1.71973 12.5303C1.57907 12.3896 1.5 12.1989 1.5 12C1.5 11.8011 1.57907 11.6104 1.71973 11.4697C1.86038 11.3291 2.05109 11.25 2.25 11.25ZM21.75 11.25C21.9489 11.25 22.1396 11.3291 22.2803 11.4697C22.4209 11.6104 22.5 11.8011 22.5 12C22.5 12.1989 22.4209 12.3896 22.2803 12.5303C22.1396 12.6709 21.9489 12.75 21.75 12.75C21.5511 12.75 21.3604 12.6709 21.2197 12.5303C21.0791 12.3896 21 12.1989 21 12C21 11.8011 21.0791 11.6104 21.2197 11.4697C21.3604 11.3291 21.5511 11.25 21.75 11.25ZM2.77637 8.75293C2.87146 8.77852 2.96099 8.82181 3.03906 8.88184C3.11712 8.94187 3.18229 9.01721 3.23145 9.10254C3.2806 9.18791 3.31244 9.2822 3.3252 9.37988C3.33794 9.47757 3.33126 9.57674 3.30566 9.67188C3.28006 9.76702 3.23585 9.85647 3.17578 9.93457C3.1158 10.0125 3.04124 10.0779 2.95605 10.127C2.87071 10.1761 2.77636 10.2079 2.67871 10.2207C2.58105 10.2334 2.48182 10.2268 2.38672 10.2012C2.19466 10.1495 2.03096 10.0239 1.93164 9.85156C1.83236 9.67915 1.80574 9.47435 1.85742 9.28223C1.90912 9.09015 2.03469 8.92646 2.20703 8.82715C2.37947 8.72785 2.58422 8.70122 2.77637 8.75293ZM21.5156 8.7334C21.6133 8.74625 21.7077 8.77793 21.793 8.82715C21.8782 8.87638 21.9527 8.94241 22.0127 9.02051C22.0726 9.09862 22.1171 9.1881 22.1426 9.2832C22.168 9.37819 22.174 9.47771 22.1611 9.5752C22.1483 9.6726 22.1165 9.76645 22.0674 9.85156C22.0181 9.93688 21.9522 10.0123 21.874 10.0723C21.7961 10.132 21.7071 10.1757 21.6123 10.2012C21.4202 10.2529 21.2154 10.2262 21.043 10.127C20.8705 10.0277 20.7441 9.86402 20.6924 9.67188C20.6407 9.47979 20.6674 9.27492 20.7666 9.10254C20.8658 8.93022 21.0297 8.80472 21.2217 8.75293H21.2236C21.3188 8.72742 21.418 8.72056 21.5156 8.7334ZM20.6377 6.4043C20.8291 6.45491 20.9926 6.5792 21.0928 6.75C21.1427 6.83524 21.176 6.92945 21.1895 7.02734C21.2029 7.12534 21.1962 7.22566 21.1709 7.32129C21.1456 7.41677 21.102 7.50649 21.042 7.58496C20.9819 7.66353 20.9069 7.72984 20.8213 7.7793C20.7357 7.8287 20.6409 7.86027 20.543 7.87305C20.4449 7.8858 20.3445 7.87943 20.249 7.85352C20.1537 7.82759 20.0644 7.78221 19.9863 7.72168C19.9083 7.66111 19.8428 7.58589 19.7939 7.5C19.6961 7.32784 19.6708 7.12374 19.7227 6.93262C19.7746 6.74161 19.8999 6.57847 20.0713 6.47949C20.2427 6.38064 20.4464 6.35371 20.6377 6.4043ZM3.65527 6.37695C3.74884 6.38911 3.83939 6.4192 3.92188 6.46484L4.20703 6.75C4.23938 6.80655 4.26743 6.86546 4.28418 6.92871C4.30946 7.02434 4.31516 7.12466 4.30176 7.22266C4.28833 7.3205 4.256 7.41479 4.20605 7.5C4.10594 7.67077 3.94232 7.79503 3.75098 7.8457C3.5595 7.89633 3.35511 7.86954 3.18359 7.77051C3.01219 7.67149 2.88685 7.50841 2.83496 7.31738C2.78307 7.12625 2.80934 6.92217 2.90723 6.75C2.95609 6.66409 3.02151 6.58889 3.09961 6.52832C3.17776 6.46773 3.26687 6.4224 3.3623 6.39648C3.45764 6.3706 3.55731 6.36427 3.65527 6.37695ZM18.8975 4.3457C18.997 4.34484 19.0954 4.3647 19.1875 4.40234C19.2797 4.44005 19.3642 4.49501 19.4346 4.56543C19.505 4.63585 19.5599 4.72033 19.5977 4.8125C19.6353 4.9046 19.6552 5.00305 19.6543 5.10254C19.6534 5.20202 19.632 5.30018 19.5928 5.3916C19.5535 5.4831 19.4964 5.56656 19.4248 5.63574C19.2834 5.77222 19.094 5.84741 18.8975 5.8457C18.7008 5.84399 18.5131 5.76503 18.374 5.62598C18.235 5.48692 18.156 5.29919 18.1543 5.10254C18.1526 4.906 18.2278 4.71662 18.3643 4.5752C18.4334 4.50356 18.5169 4.44653 18.6084 4.40723C18.6998 4.368 18.798 4.34657 18.8975 4.3457ZM16.6826 2.83496C16.8737 2.78307 17.0778 2.80934 17.25 2.90723C17.3359 2.95609 17.4111 3.02151 17.4717 3.09961C17.5323 3.17776 17.5776 3.26687 17.6035 3.3623C17.6294 3.45764 17.6357 3.55731 17.623 3.65527C17.6103 3.75317 17.5786 3.84807 17.5293 3.93359C17.4799 4.01915 17.4134 4.09425 17.335 4.1543C17.2565 4.21433 17.1668 4.25889 17.0713 4.28418C16.9757 4.30946 16.8753 4.31516 16.7773 4.30176C16.6795 4.28833 16.5852 4.256 16.5 4.20605C16.3292 4.10594 16.205 3.94232 16.1543 3.75098C16.1037 3.5595 16.1305 3.35511 16.2295 3.18359C16.3285 3.01219 16.4916 2.88686 16.6826 2.83496ZM7.32129 2.8291C7.41677 2.85439 7.50649 2.89801 7.58496 2.95801C7.66353 3.01809 7.72984 3.09306 7.7793 3.17871C7.8287 3.26428 7.86027 3.35906 7.87305 3.45703C7.8858 3.55512 7.87943 3.65552 7.85352 3.75098C7.82759 3.84631 7.78221 3.93559 7.72168 4.01367C7.66111 4.09172 7.58589 4.15722 7.5 4.20605C7.32784 4.30393 7.12374 4.32923 6.93262 4.27734C6.74161 4.2254 6.57847 4.10014 6.47949 3.92871C6.38064 3.75727 6.35371 3.55364 6.4043 3.3623C6.45491 3.17088 6.5792 3.00739 6.75 2.90723C6.83524 2.85726 6.92945 2.82397 7.02734 2.81055C7.12534 2.79715 7.22566 2.80382 7.32129 2.8291ZM9.28223 1.8584C9.47431 1.80677 9.67919 1.83336 9.85156 1.93262C10.0239 2.03186 10.1494 2.19571 10.2012 2.3877H10.2002C10.2297 2.48393 10.2389 2.58543 10.2285 2.68555C10.2181 2.78558 10.1883 2.88268 10.1396 2.9707C10.0909 3.05879 10.0246 3.13618 9.94531 3.19824C9.86608 3.26029 9.7749 3.30585 9.67773 3.33203C9.58069 3.35813 9.47942 3.3644 9.37988 3.35059C9.28019 3.33673 9.18402 3.30267 9.09766 3.25098C9.01139 3.1993 8.93621 3.13105 8.87695 3.0498C8.81772 2.96859 8.77579 2.8762 8.75293 2.77832C8.70123 2.58623 8.72792 2.38139 8.82715 2.20898C8.92645 2.03654 9.09008 1.91012 9.28223 1.8584ZM14.7178 1.8584C14.8158 1.88124 14.9089 1.92408 14.9902 1.9834C15.0713 2.04266 15.1398 2.11791 15.1914 2.2041C15.243 2.29031 15.2772 2.38587 15.291 2.48535C15.3049 2.58505 15.2986 2.68699 15.2725 2.78418C15.2463 2.88137 15.2007 2.97252 15.1387 3.05176C15.0767 3.13088 14.9991 3.19644 14.9111 3.24512C14.8232 3.29375 14.7259 3.32449 14.626 3.33496C14.5259 3.34539 14.4244 3.33516 14.3281 3.30566C14.1423 3.2487 13.9857 3.12218 13.8916 2.95215C13.7975 2.78197 13.7727 2.58132 13.8232 2.39355C13.8739 2.20585 13.9963 2.04516 14.1631 1.94531C14.3298 1.84566 14.5286 1.81439 14.7178 1.8584ZM12 1.5C12.1989 1.5 12.3896 1.57907 12.5303 1.71973C12.6709 1.86038 12.75 2.05109 12.75 2.25C12.75 2.44891 12.6709 2.63962 12.5303 2.78027C12.3896 2.92093 12.1989 3 12 3C11.8011 3 11.6104 2.92093 11.4697 2.78027C11.3291 2.63962 11.25 2.44891 11.25 2.25C11.25 2.05109 11.3291 1.86038 11.4697 1.71973C11.6104 1.57907 11.8011 1.5 12 1.5Z"
                fill="white" />
        </g>
    </g>
    <defs>
        <filter id="filter0_d_2355_2334" x="0.5" y="0.5" width="23" height="23"
            filterUnits="userSpaceOnUse" color-interpolation-filters="sRGB">
            <feFlood flood-opacity="0" result="BackgroundImageFix" />
            <feColorMatrix in="SourceAlpha" type="matrix"
                values="0 0 0 0 0 0 0 0 0 0 0 0 0 0 0 0 0 0 127 0" result="hardAlpha" />
            <feOffset />
            <feGaussianBlur stdDeviation="0.5" />
            <feComposite in2="hardAlpha" operator="out" />
            <feColorMatrix type="matrix" values="0 0 0 0 0 0 0 0 0 0 0 0 0 0 0 0 0 0 0.5 0" />
            <feBlend mode="normal" in2="BackgroundImageFix" result="effect1_dropShadow_2355_2334" />
            <feBlend mode="normal" in="SourceGraphic" in2="effect1_dropShadow_2355_2334"
                result="shape" />
        </filter>
        <clipPath id="clip0_2355_2334">
            <rect width="24" height="24" fill="white" />
        </clipPath>
    </defs>
</svg>
