<svg width="24" height="24" viewBox="0 0 24 24" fill="none" xmlns="http://www.w3.org/2000/svg">
    <path d="M5.28205 7.40447C4.69634 6.81876 4.69649 5.86918 5.28205 5.28337C5.86784 4.69759 6.81736 4.69759 7.40315 5.28337L11.9988 9.88005L16.5955 5.28337L16.7098 5.17986C17.2989 4.69942 18.1675 4.73424 18.7166 5.28337C19.2658 5.83251 19.3006 6.70105 18.8201 7.29021L18.7166 7.40447L14.1199 12.0011L18.7166 16.5968L18.8201 16.7101C19.3007 17.2993 19.2658 18.1688 18.7166 18.7179C18.1674 19.2669 17.2989 19.301 16.7098 18.8205L16.5955 18.7179L11.9988 14.1222L7.40315 18.7179C6.81735 19.3036 5.8678 19.3037 5.28205 18.7179C4.69631 18.1322 4.69638 17.1826 5.28205 16.5968L9.87776 12.0011L5.28205 7.40447Z" fill="#1E1E1E"/>
</svg>
