<svg width="20" height="21" viewBox="0 0 20 21" fill="none" xmlns="http://www.w3.org/2000/svg">
    <path d="M9.32326 4.0166H7.93516C4.46491 4.0166 3.07681 5.4047 3.07681 8.87495V13.0393C3.07681 16.5095 4.46491 17.8976 7.93516 17.8976H12.0995C15.5697 17.8976 16.9578 16.5095 16.9578 13.0393V11.6512" stroke="#80858D" stroke-width="1.5" stroke-linecap="round" stroke-linejoin="round"/>
    <path d="M12.8214 4.72507L7.35224 10.1942C7.14403 10.4024 6.93581 10.8119 6.89417 11.1103L6.59573 13.1994C6.48468 13.9559 7.0191 14.4834 7.77561 14.3793L9.8647 14.0809C10.1562 14.0392 10.5657 13.831 10.7808 13.6228L16.25 8.15368C17.1939 7.20977 17.6381 6.11317 16.25 4.72507C14.8619 3.33697 13.7653 3.78116 12.8214 4.72507Z" stroke="#80858D" stroke-width="1.5" stroke-miterlimit="10" stroke-linecap="round" stroke-linejoin="round"/>
    <path d="M12.0368 5.50781C12.5018 7.16659 13.7997 8.46447 15.4654 8.93642" stroke="#80858D" stroke-width="1.5" stroke-miterlimit="10" stroke-linecap="round" stroke-linejoin="round"/>
</svg>
