<svg width="60" height="40" viewBox="0 0 60 40" fill="none" xmlns="http://www.w3.org/2000/svg">
    <path d="M0 20C0 8.95431 8.9543 0 20 0H40C51.0457 0 60 8.95431 60 20C60 31.0457 51.0457 40 40 40H20C8.9543 40 0 31.0457 0 20Z" fill="#1E5EFF"/>
    <path d="M20 19C19.4477 19 19 19.4477 19 20C19 20.5523 19.4477 21 20 21V20V19ZM40.7071 20.7071C41.0976 20.3166 41.0976 19.6834 40.7071 19.2929L34.3431 12.9289C33.9526 12.5384 33.3195 12.5384 32.9289 12.9289C32.5384 13.3195 32.5384 13.9526 32.9289 14.3431L38.5858 20L32.9289 25.6569C32.5384 26.0474 32.5384 26.6805 32.9289 27.0711C33.3195 27.4616 33.9526 27.4616 34.3431 27.0711L40.7071 20.7071ZM20 20V21L40 21V20V19L20 19V20Z" fill="white"/>
</svg>
