<svg width="201" height="22" viewBox="0 0 201 22" fill="none" xmlns="http://www.w3.org/2000/svg">
    <path
        d="M4.424 21L5.852 12.852L0.616 1.176H7.84L9.968 7.308L14.196 1.176H22.092L12.32 12.852L10.892 21H4.424ZM28.5812 21.504C23.4852 21.504 20.0692 19.18 20.0692 15.316C20.0692 14.812 20.1532 14.028 20.2372 13.468L22.3372 1.176H28.7492L26.7052 12.628C26.6492 12.936 26.6492 13.3 26.6492 13.552C26.6492 14.784 27.3212 15.876 29.1132 15.876C31.4092 15.876 31.9132 14.224 32.1932 12.74L34.2932 1.176H40.5932L38.4372 13.72C37.6252 18.424 34.4892 21.504 28.5812 21.504ZM40.7468 21L44.2468 1.176H50.6028L54.6068 11.508H54.7188L56.3428 1.176H62.6428L59.1428 21H52.6188L48.6988 11.172H48.5868L47.0468 21H40.7468ZM62.8952 21L66.3952 1.176H72.9192L69.4192 21H62.8952ZM80.1765 21L83.6765 1.176H91.0685C96.1365 1.176 98.9645 3.444 98.9645 7.168C98.9645 12.264 95.4925 14.532 89.6965 14.532H87.7925L86.6165 21H80.1765ZM88.6325 9.66H89.6685C91.4605 9.66 92.5245 9.072 92.5245 7.812C92.5245 6.636 91.6285 6.244 90.2285 6.244H89.2485L88.6325 9.66ZM99.2077 21L102.708 1.176H109.148L107.944 7.98H113.6L114.804 1.176H121.3L117.8 21H111.332L112.676 13.384H107.02L105.676 21H99.2077ZM132.048 21.504C125.692 21.504 122.22 17.78 122.22 12.488C122.22 5.908 127.008 0.672 134.26 0.672C140.672 0.672 144.116 4.396 144.116 9.688C144.116 16.268 139.356 21.504 132.048 21.504ZM132.636 15.568C135.52 15.568 137.368 12.936 137.368 10.164C137.368 8.176 136.08 6.552 133.728 6.552C130.788 6.552 128.968 9.24 128.968 11.956C128.968 13.944 130.256 15.568 132.636 15.568ZM147.296 21L149.816 6.636H144.804L145.784 1.176H162.136L161.156 6.636H156.312L153.792 21H147.296ZM170.52 21.504C164.164 21.504 160.692 17.78 160.692 12.488C160.692 5.908 165.48 0.672 172.732 0.672C179.144 0.672 182.588 4.396 182.588 9.688C182.588 16.268 177.828 21.504 170.52 21.504ZM171.108 15.568C173.992 15.568 175.84 12.936 175.84 10.164C175.84 8.176 174.552 6.552 172.2 6.552C169.26 6.552 167.44 9.24 167.44 11.956C167.44 13.944 168.728 15.568 171.108 15.568ZM190.008 21.56C186.9 21.56 183.596 20.524 181.72 18.704L186.144 14.616C187.012 15.624 188.804 16.296 189.98 16.296C191.268 16.296 192.136 15.848 192.136 15.036C192.136 14.364 191.576 13.888 189.812 13.328C186.956 12.404 184.716 11.144 184.716 7.812C184.716 3.696 188.272 0.615999 193.452 0.615999C196.28 0.615999 199.108 1.596 200.536 3.08L196.392 7.084C195.748 6.356 194.74 5.824 193.396 5.824C192.36 5.824 191.352 6.272 191.352 7.196C191.352 7.924 192.08 8.26 193.452 8.708C196.868 9.828 198.912 11.508 198.912 14.504C198.912 19.6 193.956 21.56 190.008 21.56Z"
        fill="#002B76" />
</svg>
