<svg width="24" height="24" viewBox="0 0 24 24" fill="none" xmlns="http://www.w3.org/2000/svg">
    <path
        d="M15.9179 14.7863L12.5757 11.4248C12.5008 11.3495 12.4118 11.2898 12.3138 11.249C12.2157 11.2082 12.1106 11.1873 12.0044 11.1873C11.8983 11.1873 11.7931 11.2082 11.6951 11.249C11.5971 11.2898 11.5081 11.3495 11.4332 11.4248L8.09069 14.7863C7.9391 14.9391 7.85405 15.1456 7.85405 15.3609C7.85405 15.5761 7.9391 15.7827 8.09069 15.9355C8.16551 16.0109 8.25453 16.0708 8.35259 16.1116C8.45065 16.1524 8.55583 16.1735 8.66206 16.1735C8.76829 16.1735 8.87347 16.1524 8.97153 16.1116C9.06959 16.0708 9.15861 16.0109 9.23343 15.9355L12.0044 13.1488L14.7749 15.9355C14.8497 16.011 14.9387 16.0709 15.0368 16.1118C15.1349 16.1527 15.2402 16.1736 15.3464 16.1735C15.5532 16.1735 15.7599 16.094 15.9177 15.9355C16.0693 15.7827 16.1543 15.5761 16.1543 15.3609C16.1543 15.1456 16.0693 14.9391 15.9177 14.7863H15.9179ZM12.0044 11.1868C11.898 11.1871 11.7927 11.2083 11.6945 11.2493C11.5963 11.2903 11.5072 11.3502 11.4322 11.4257C11.3571 11.5011 11.2977 11.5906 11.2572 11.689C11.2168 11.7874 11.1961 11.8929 11.1964 11.9993V19.5625C11.1961 19.6689 11.2168 19.7743 11.2572 19.8728C11.2977 19.9712 11.3571 20.0607 11.4322 20.1361C11.5072 20.2116 11.5963 20.2715 11.6945 20.3125C11.7927 20.3535 11.898 20.3747 12.0044 20.375C12.2193 20.3743 12.4251 20.2884 12.5766 20.136C12.7282 19.9837 12.813 19.7774 12.8124 19.5625V11.9993C12.813 11.7844 12.7282 11.5781 12.5766 11.4257C12.4251 11.2734 12.2193 11.1874 12.0044 11.1868ZM21.3924 11.28C20.5189 9.66876 18.8429 8.66701 17.0174 8.66576H16.5632C15.2909 5.01152 11.4112 2.87927 7.61769 3.86577C3.61794 4.90577 1.20519 9.02451 2.23944 13.0473C2.53572 14.1958 3.09725 15.2589 3.87894 16.151C3.94895 16.2309 4.03409 16.2961 4.12943 16.3429C4.22477 16.3898 4.32844 16.4173 4.43446 16.4238C4.54047 16.4304 4.64674 16.4159 4.74714 16.3813C4.84754 16.3466 4.94008 16.2924 5.01944 16.2218C5.18008 16.0785 5.27763 15.8776 5.29083 15.6628C5.30404 15.4479 5.23183 15.2366 5.08994 15.0748C4.47683 14.3751 4.03637 13.5413 3.80394 12.6405C3.41094 11.112 3.63344 9.52126 4.43019 8.16126C5.22694 6.80127 6.50269 5.83452 8.02243 5.43927C11.1594 4.62352 14.3714 6.52677 15.1827 9.68176C15.227 9.85575 15.328 10.01 15.4696 10.1203C15.6113 10.2307 15.7856 10.2907 15.9652 10.291H17.0172C17.6234 10.2919 18.2182 10.4566 18.7386 10.7676C19.259 11.0787 19.6857 11.5245 19.9737 12.058C20.8632 13.6988 20.2594 15.7613 18.6279 16.6558C18.4395 16.7597 18.2999 16.934 18.2394 17.1405C18.179 17.3471 18.2027 17.5691 18.3054 17.7583C18.3746 17.8864 18.4771 17.9934 18.602 18.068C18.727 18.1426 18.8699 18.182 19.0154 18.182C19.1462 18.182 19.2787 18.15 19.4014 18.0828C21.8152 16.7593 22.7084 13.7075 21.3924 11.28ZM15.9179 14.7863L12.5757 11.4248C12.5008 11.3495 12.4118 11.2898 12.3138 11.249C12.2157 11.2082 12.1106 11.1873 12.0044 11.1873C11.8983 11.1873 11.7931 11.2082 11.6951 11.249C11.5971 11.2898 11.5081 11.3495 11.4332 11.4248L8.09069 14.7863C7.9391 14.9391 7.85405 15.1456 7.85405 15.3609C7.85405 15.5761 7.9391 15.7827 8.09069 15.9355C8.16551 16.0109 8.25453 16.0708 8.35259 16.1116C8.45065 16.1524 8.55583 16.1735 8.66206 16.1735C8.76829 16.1735 8.87347 16.1524 8.97153 16.1116C9.06959 16.0708 9.15861 16.0109 9.23343 15.9355L12.0044 13.1488L14.7749 15.9355C14.8497 16.011 14.9387 16.0709 15.0368 16.1118C15.1349 16.1527 15.2402 16.1736 15.3464 16.1735C15.5532 16.1735 15.7599 16.094 15.9177 15.9355C16.0693 15.7827 16.1543 15.5761 16.1543 15.3609C16.1543 15.1456 16.0693 14.9391 15.9177 14.7863H15.9179Z"
        fill="white" stroke="white" stroke-width="0.4" />
</svg>
