<svg width="18" height="19" viewBox="0 0 18 19" fill="none" xmlns="http://www.w3.org/2000/svg">
    <path d="M7.75011 3.75005C7.75011 3.05971 8.30965 2.50021 8.99998 2.50018C9.69033 2.50018 10.2498 3.0597 10.2498 3.75005L10.2492 8.50023H15L15.1278 8.50645C15.758 8.57054 16.2499 9.10295 16.2499 9.7501C16.2497 10.3969 15.7584 10.9288 15.1285 10.9931L15 11H10.2492L10.2498 15.7501L10.2436 15.8779C10.1795 16.5081 9.64707 17 8.99998 17C8.35285 17 7.8211 16.5074 7.75702 15.8772L7.75011 15.7501L7.74942 11L2.99993 11C2.30974 10.9999 1.75025 10.4403 1.75006 9.7501C1.75006 9.05978 2.30962 8.50029 2.99993 8.50023L7.74942 8.50023L7.75011 3.75005Z" fill="#1E1E1E"/>
</svg>
