<svg width="18" height="19" viewBox="0 0 18 19" fill="none" xmlns="http://www.w3.org/2000/svg">
    <path fill-rule="evenodd" clip-rule="evenodd" d="M7.875 3.22461C10.9816 3.22461 13.5 5.74301 13.5 8.84961C13.5 10.1322 13.0707 11.3146 12.348 12.2608L14.7803 14.6943C15.0732 14.9872 15.0732 15.462 14.7803 15.7549C14.51 16.0253 14.0845 16.0461 13.7903 15.8173L13.7197 15.7549L11.2862 13.3226C10.34 14.0453 9.15761 14.4746 7.875 14.4746C4.7684 14.4746 2.25 11.9562 2.25 8.84961C2.25 5.74301 4.7684 3.22461 7.875 3.22461ZM7.875 4.72461C5.59683 4.72461 3.75 6.57143 3.75 8.84961C3.75 11.1278 5.59683 12.9746 7.875 12.9746C8.88835 12.9746 9.81636 12.6092 10.5345 12.003C10.5683 11.8898 10.6304 11.7836 10.7197 11.6943C10.809 11.605 10.9152 11.5429 11.0281 11.508C11.6346 10.791 12 9.86296 12 8.84961C12 6.57143 10.1532 4.72461 7.875 4.72461Z" fill="#7E84A3"/>
</svg>
