<svg width="24" height="25" viewBox="0 0 24 25" fill="none" xmlns="http://www.w3.org/2000/svg">
    <path d="M5 10.9746C3.9 10.9746 3 11.8746 3 12.9746C3 14.0746 3.9 14.9746 5 14.9746C6.1 14.9746 7 14.0746 7 12.9746C7 11.8746 6.1 10.9746 5 10.9746Z" fill="#80858D"/>
    <path d="M19 10.9746C17.9 10.9746 17 11.8746 17 12.9746C17 14.0746 17.9 14.9746 19 14.9746C20.1 14.9746 21 14.0746 21 12.9746C21 11.8746 20.1 10.9746 19 10.9746Z" fill="#80858D"/>
    <path d="M12 10.9746C10.9 10.9746 10 11.8746 10 12.9746C10 14.0746 10.9 14.9746 12 14.9746C13.1 14.9746 14 14.0746 14 12.9746C14 11.8746 13.1 10.9746 12 10.9746Z" fill="#80858D"/>
</svg>
