<svg width="20" height="21" viewBox="0 0 20 21" fill="none" xmlns="http://www.w3.org/2000/svg">
    <path d="M9.32339 4.0166H7.93529C4.46504 4.0166 3.07693 5.4047 3.07693 8.87495V13.0393C3.07693 16.5095 4.46504 17.8976 7.93529 17.8976H12.0996C15.5698 17.8976 16.9579 16.5095 16.9579 13.0393V11.6512" stroke="#1E5EFF" stroke-width="1.2" stroke-linecap="round" stroke-linejoin="round"/>
    <path d="M12.8215 4.72507L7.35236 10.1942C7.14415 10.4024 6.93593 10.8119 6.89429 11.1103L6.59585 13.1994C6.4848 13.9559 7.01922 14.4834 7.77573 14.3793L9.86482 14.0809C10.1563 14.0392 10.5658 13.831 10.781 13.6228L16.2501 8.15368C17.194 7.20977 17.6382 6.11317 16.2501 4.72507C14.862 3.33697 13.7654 3.78116 12.8215 4.72507Z" stroke="#1E5EFF" stroke-width="1.2" stroke-miterlimit="10" stroke-linecap="round" stroke-linejoin="round"/>
    <path d="M12.0369 5.50781C12.5019 7.16659 13.7998 8.46447 15.4655 8.93642" stroke="#1E5EFF" stroke-width="1.2" stroke-miterlimit="10" stroke-linecap="round" stroke-linejoin="round"/>
</svg>
